<mxfile host="app.diagrams.net" modified="2024-07-22T05:33:46.665Z" agent="Mozilla/5.0 (Windows NT 10.0; Win64; x64) AppleWebKit/537.36 (KHTML, like Gecko) Chrome/126.0.0.0 Safari/537.36" etag="qOpd4yTik7vPs4Zl01k3" version="24.7.1" type="device">
  <diagram name="페이지-1" id="GK7pOlPdpEz-HX0LHCsj">
    <mxGraphModel dx="1434" dy="900" grid="1" gridSize="10" guides="1" tooltips="1" connect="1" arrows="1" fold="1" page="1" pageScale="1" pageWidth="827" pageHeight="1169" math="0" shadow="0">
      <root>
        <mxCell id="0" />
        <mxCell id="1" parent="0" />
        <mxCell id="v1VUJ-rEYAuuQbZVyOfn-1" value="Member" style="shape=table;startSize=30;container=1;collapsible=1;childLayout=tableLayout;fixedRows=1;rowLines=0;fontStyle=1;align=center;resizeLast=1;html=1;" parent="1" vertex="1">
          <mxGeometry x="110" y="70" width="250" height="290" as="geometry" />
        </mxCell>
        <mxCell id="v1VUJ-rEYAuuQbZVyOfn-2" value="" style="shape=tableRow;horizontal=0;startSize=0;swimlaneHead=0;swimlaneBody=0;fillColor=none;collapsible=0;dropTarget=0;points=[[0,0.5],[1,0.5]];portConstraint=eastwest;top=0;left=0;right=0;bottom=1;" parent="v1VUJ-rEYAuuQbZVyOfn-1" vertex="1">
          <mxGeometry y="30" width="250" height="30" as="geometry" />
        </mxCell>
        <mxCell id="v1VUJ-rEYAuuQbZVyOfn-3" value="PK" style="shape=partialRectangle;connectable=0;fillColor=none;top=0;left=0;bottom=0;right=0;fontStyle=1;overflow=hidden;whiteSpace=wrap;html=1;" parent="v1VUJ-rEYAuuQbZVyOfn-2" vertex="1">
          <mxGeometry width="30" height="30" as="geometry">
            <mxRectangle width="30" height="30" as="alternateBounds" />
          </mxGeometry>
        </mxCell>
        <mxCell id="v1VUJ-rEYAuuQbZVyOfn-4" value="userId&lt;span style=&quot;white-space: pre;&quot;&gt;&#x9;&lt;/span&gt;varchar(8)" style="shape=partialRectangle;connectable=0;fillColor=none;top=0;left=0;bottom=0;right=0;align=left;spacingLeft=6;fontStyle=5;overflow=hidden;whiteSpace=wrap;html=1;" parent="v1VUJ-rEYAuuQbZVyOfn-2" vertex="1">
          <mxGeometry x="30" width="220" height="30" as="geometry">
            <mxRectangle width="220" height="30" as="alternateBounds" />
          </mxGeometry>
        </mxCell>
        <mxCell id="v1VUJ-rEYAuuQbZVyOfn-5" value="" style="shape=tableRow;horizontal=0;startSize=0;swimlaneHead=0;swimlaneBody=0;fillColor=none;collapsible=0;dropTarget=0;points=[[0,0.5],[1,0.5]];portConstraint=eastwest;top=0;left=0;right=0;bottom=0;" parent="v1VUJ-rEYAuuQbZVyOfn-1" vertex="1">
          <mxGeometry y="60" width="250" height="30" as="geometry" />
        </mxCell>
        <mxCell id="v1VUJ-rEYAuuQbZVyOfn-6" value="" style="shape=partialRectangle;connectable=0;fillColor=none;top=0;left=0;bottom=0;right=0;editable=1;overflow=hidden;whiteSpace=wrap;html=1;" parent="v1VUJ-rEYAuuQbZVyOfn-5" vertex="1">
          <mxGeometry width="30" height="30" as="geometry">
            <mxRectangle width="30" height="30" as="alternateBounds" />
          </mxGeometry>
        </mxCell>
        <mxCell id="v1VUJ-rEYAuuQbZVyOfn-7" value="userPwd&amp;nbsp; &amp;nbsp;varchar(200)&amp;nbsp; not null" style="shape=partialRectangle;connectable=0;fillColor=none;top=0;left=0;bottom=0;right=0;align=left;spacingLeft=6;overflow=hidden;whiteSpace=wrap;html=1;" parent="v1VUJ-rEYAuuQbZVyOfn-5" vertex="1">
          <mxGeometry x="30" width="220" height="30" as="geometry">
            <mxRectangle width="220" height="30" as="alternateBounds" />
          </mxGeometry>
        </mxCell>
        <mxCell id="v1VUJ-rEYAuuQbZVyOfn-8" value="" style="shape=tableRow;horizontal=0;startSize=0;swimlaneHead=0;swimlaneBody=0;fillColor=none;collapsible=0;dropTarget=0;points=[[0,0.5],[1,0.5]];portConstraint=eastwest;top=0;left=0;right=0;bottom=0;" parent="v1VUJ-rEYAuuQbZVyOfn-1" vertex="1">
          <mxGeometry y="90" width="250" height="30" as="geometry" />
        </mxCell>
        <mxCell id="v1VUJ-rEYAuuQbZVyOfn-9" value="" style="shape=partialRectangle;connectable=0;fillColor=none;top=0;left=0;bottom=0;right=0;editable=1;overflow=hidden;whiteSpace=wrap;html=1;" parent="v1VUJ-rEYAuuQbZVyOfn-8" vertex="1">
          <mxGeometry width="30" height="30" as="geometry">
            <mxRectangle width="30" height="30" as="alternateBounds" />
          </mxGeometry>
        </mxCell>
        <mxCell id="v1VUJ-rEYAuuQbZVyOfn-10" value="userName&amp;nbsp; varchar(12)&amp;nbsp;" style="shape=partialRectangle;connectable=0;fillColor=none;top=0;left=0;bottom=0;right=0;align=left;spacingLeft=6;overflow=hidden;whiteSpace=wrap;html=1;" parent="v1VUJ-rEYAuuQbZVyOfn-8" vertex="1">
          <mxGeometry x="30" width="220" height="30" as="geometry">
            <mxRectangle width="220" height="30" as="alternateBounds" />
          </mxGeometry>
        </mxCell>
        <mxCell id="v1VUJ-rEYAuuQbZVyOfn-11" value="" style="shape=tableRow;horizontal=0;startSize=0;swimlaneHead=0;swimlaneBody=0;fillColor=none;collapsible=0;dropTarget=0;points=[[0,0.5],[1,0.5]];portConstraint=eastwest;top=0;left=0;right=0;bottom=0;" parent="v1VUJ-rEYAuuQbZVyOfn-1" vertex="1">
          <mxGeometry y="120" width="250" height="30" as="geometry" />
        </mxCell>
        <mxCell id="v1VUJ-rEYAuuQbZVyOfn-12" value="" style="shape=partialRectangle;connectable=0;fillColor=none;top=0;left=0;bottom=0;right=0;editable=1;overflow=hidden;whiteSpace=wrap;html=1;" parent="v1VUJ-rEYAuuQbZVyOfn-11" vertex="1">
          <mxGeometry width="30" height="30" as="geometry">
            <mxRectangle width="30" height="30" as="alternateBounds" />
          </mxGeometry>
        </mxCell>
        <mxCell id="v1VUJ-rEYAuuQbZVyOfn-13" value="mobile&amp;nbsp; varchar(13)&amp;nbsp;" style="shape=partialRectangle;connectable=0;fillColor=none;top=0;left=0;bottom=0;right=0;align=left;spacingLeft=6;overflow=hidden;whiteSpace=wrap;html=1;" parent="v1VUJ-rEYAuuQbZVyOfn-11" vertex="1">
          <mxGeometry x="30" width="220" height="30" as="geometry">
            <mxRectangle width="220" height="30" as="alternateBounds" />
          </mxGeometry>
        </mxCell>
        <mxCell id="v1VUJ-rEYAuuQbZVyOfn-14" value="email&amp;nbsp; &amp;nbsp; varchar(50)&amp;nbsp;&lt;span style=&quot;color: rgba(0, 0, 0, 0); font-family: monospace; font-size: 0px; text-wrap: nowrap;&quot;&gt;%3CmxGraphModel%3E%3Croot%3E%3CmxCell%20id%3D%220%22%2F%3E%3CmxCell%20id%3D%221%22%20parent%3D%220%22%2F%3E%3CmxCell%20id%3D%222%22%20value%3D%22mobile%26amp%3Bnbsp%3B%20varchar(13)%26amp%3Bnbsp%3B%22%20style%3D%22shape%3DpartialRectangle%3Bconnectable%3D0%3BfillColor%3Dnone%3Btop%3D0%3Bleft%3D0%3Bbottom%3D0%3Bright%3D0%3Balign%3Dleft%3BspacingLeft%3D6%3Boverflow%3Dhidden%3BwhiteSpace%3Dwrap%3Bhtml%3D1%3B%22%20vertex%3D%221%22%20parent%3D%221%22%3E%3CmxGeometry%20x%3D%22140%22%20y%3D%22190%22%20width%3D%22220%22%20height%3D%2230%22%20as%3D%22geometry%22%3E%3CmxRectangle%20width%3D%22220%22%20height%3D%2230%22%20as%3D%22alternateBounds%22%2F%3E%3C%2FmxGeometry%3E%3C%2FmxCell%3E%3C%2Froot%3E%3C%2FmxGraphModel%3E&lt;/span&gt;" style="shape=partialRectangle;connectable=0;fillColor=none;top=0;left=0;bottom=0;right=0;align=left;spacingLeft=6;overflow=hidden;whiteSpace=wrap;html=1;" parent="1" vertex="1">
          <mxGeometry x="140" y="214" width="220" height="30" as="geometry">
            <mxRectangle width="220" height="30" as="alternateBounds" />
          </mxGeometry>
        </mxCell>
        <mxCell id="v1VUJ-rEYAuuQbZVyOfn-15" value="registerDate&amp;nbsp; &amp;nbsp; DateTime" style="shape=partialRectangle;connectable=0;fillColor=none;top=0;left=0;bottom=0;right=0;align=left;spacingLeft=6;overflow=hidden;whiteSpace=wrap;html=1;" parent="1" vertex="1">
          <mxGeometry x="139" y="239" width="211" height="31" as="geometry">
            <mxRectangle width="220" height="30" as="alternateBounds" />
          </mxGeometry>
        </mxCell>
        <mxCell id="v1VUJ-rEYAuuQbZVyOfn-16" value="userImg&amp;nbsp; &amp;nbsp; &amp;nbsp; &amp;nbsp;varchar(50)&amp;nbsp; not null" style="shape=partialRectangle;connectable=0;fillColor=none;top=0;left=0;bottom=0;right=0;align=left;spacingLeft=6;overflow=hidden;whiteSpace=wrap;html=1;" parent="1" vertex="1">
          <mxGeometry x="141" y="265" width="211" height="31" as="geometry">
            <mxRectangle width="220" height="30" as="alternateBounds" />
          </mxGeometry>
        </mxCell>
        <mxCell id="v1VUJ-rEYAuuQbZVyOfn-17" value="userPoint&amp;nbsp; &amp;nbsp; &amp;nbsp;int" style="shape=partialRectangle;connectable=0;fillColor=none;top=0;left=0;bottom=0;right=0;align=left;spacingLeft=6;overflow=hidden;whiteSpace=wrap;html=1;" parent="1" vertex="1">
          <mxGeometry x="140" y="296" width="211" height="31" as="geometry">
            <mxRectangle width="220" height="30" as="alternateBounds" />
          </mxGeometry>
        </mxCell>
        <mxCell id="v1VUJ-rEYAuuQbZVyOfn-18" value="PointLog" style="shape=table;startSize=30;container=1;collapsible=1;childLayout=tableLayout;fixedRows=1;rowLines=0;fontStyle=1;align=center;resizeLast=1;html=1;" parent="1" vertex="1">
          <mxGeometry x="520" y="70" width="210" height="200" as="geometry" />
        </mxCell>
        <mxCell id="v1VUJ-rEYAuuQbZVyOfn-19" value="" style="shape=tableRow;horizontal=0;startSize=0;swimlaneHead=0;swimlaneBody=0;fillColor=none;collapsible=0;dropTarget=0;points=[[0,0.5],[1,0.5]];portConstraint=eastwest;top=0;left=0;right=0;bottom=1;" parent="v1VUJ-rEYAuuQbZVyOfn-18" vertex="1">
          <mxGeometry y="30" width="210" height="30" as="geometry" />
        </mxCell>
        <mxCell id="v1VUJ-rEYAuuQbZVyOfn-20" value="PK" style="shape=partialRectangle;connectable=0;fillColor=none;top=0;left=0;bottom=0;right=0;fontStyle=1;overflow=hidden;whiteSpace=wrap;html=1;" parent="v1VUJ-rEYAuuQbZVyOfn-19" vertex="1">
          <mxGeometry width="30" height="30" as="geometry">
            <mxRectangle width="30" height="30" as="alternateBounds" />
          </mxGeometry>
        </mxCell>
        <mxCell id="v1VUJ-rEYAuuQbZVyOfn-21" value="pointLogNo&lt;span style=&quot;white-space: pre;&quot;&gt;&#x9;&lt;/span&gt;int" style="shape=partialRectangle;connectable=0;fillColor=none;top=0;left=0;bottom=0;right=0;align=left;spacingLeft=6;fontStyle=5;overflow=hidden;whiteSpace=wrap;html=1;" parent="v1VUJ-rEYAuuQbZVyOfn-19" vertex="1">
          <mxGeometry x="30" width="180" height="30" as="geometry">
            <mxRectangle width="180" height="30" as="alternateBounds" />
          </mxGeometry>
        </mxCell>
        <mxCell id="v1VUJ-rEYAuuQbZVyOfn-22" value="" style="shape=tableRow;horizontal=0;startSize=0;swimlaneHead=0;swimlaneBody=0;fillColor=none;collapsible=0;dropTarget=0;points=[[0,0.5],[1,0.5]];portConstraint=eastwest;top=0;left=0;right=0;bottom=0;" parent="v1VUJ-rEYAuuQbZVyOfn-18" vertex="1">
          <mxGeometry y="60" width="210" height="30" as="geometry" />
        </mxCell>
        <mxCell id="v1VUJ-rEYAuuQbZVyOfn-23" value="" style="shape=partialRectangle;connectable=0;fillColor=none;top=0;left=0;bottom=0;right=0;editable=1;overflow=hidden;whiteSpace=wrap;html=1;" parent="v1VUJ-rEYAuuQbZVyOfn-22" vertex="1">
          <mxGeometry width="30" height="30" as="geometry">
            <mxRectangle width="30" height="30" as="alternateBounds" />
          </mxGeometry>
        </mxCell>
        <mxCell id="v1VUJ-rEYAuuQbZVyOfn-24" value="pointWho&amp;nbsp; &amp;nbsp;" style="shape=partialRectangle;connectable=0;fillColor=none;top=0;left=0;bottom=0;right=0;align=left;spacingLeft=6;overflow=hidden;whiteSpace=wrap;html=1;" parent="v1VUJ-rEYAuuQbZVyOfn-22" vertex="1">
          <mxGeometry x="30" width="180" height="30" as="geometry">
            <mxRectangle width="180" height="30" as="alternateBounds" />
          </mxGeometry>
        </mxCell>
        <mxCell id="v1VUJ-rEYAuuQbZVyOfn-25" value="" style="shape=tableRow;horizontal=0;startSize=0;swimlaneHead=0;swimlaneBody=0;fillColor=none;collapsible=0;dropTarget=0;points=[[0,0.5],[1,0.5]];portConstraint=eastwest;top=0;left=0;right=0;bottom=0;" parent="v1VUJ-rEYAuuQbZVyOfn-18" vertex="1">
          <mxGeometry y="90" width="210" height="30" as="geometry" />
        </mxCell>
        <mxCell id="v1VUJ-rEYAuuQbZVyOfn-26" value="" style="shape=partialRectangle;connectable=0;fillColor=none;top=0;left=0;bottom=0;right=0;editable=1;overflow=hidden;whiteSpace=wrap;html=1;" parent="v1VUJ-rEYAuuQbZVyOfn-25" vertex="1">
          <mxGeometry width="30" height="30" as="geometry">
            <mxRectangle width="30" height="30" as="alternateBounds" />
          </mxGeometry>
        </mxCell>
        <mxCell id="v1VUJ-rEYAuuQbZVyOfn-27" value="pointWhen&lt;span style=&quot;white-space: pre;&quot;&gt;&#x9;&lt;/span&gt;DateTime" style="shape=partialRectangle;connectable=0;fillColor=none;top=0;left=0;bottom=0;right=0;align=left;spacingLeft=6;overflow=hidden;whiteSpace=wrap;html=1;" parent="v1VUJ-rEYAuuQbZVyOfn-25" vertex="1">
          <mxGeometry x="30" width="180" height="30" as="geometry">
            <mxRectangle width="180" height="30" as="alternateBounds" />
          </mxGeometry>
        </mxCell>
        <mxCell id="v1VUJ-rEYAuuQbZVyOfn-28" value="" style="shape=tableRow;horizontal=0;startSize=0;swimlaneHead=0;swimlaneBody=0;fillColor=none;collapsible=0;dropTarget=0;points=[[0,0.5],[1,0.5]];portConstraint=eastwest;top=0;left=0;right=0;bottom=0;" parent="v1VUJ-rEYAuuQbZVyOfn-18" vertex="1">
          <mxGeometry y="120" width="210" height="30" as="geometry" />
        </mxCell>
        <mxCell id="v1VUJ-rEYAuuQbZVyOfn-29" value="" style="shape=partialRectangle;connectable=0;fillColor=none;top=0;left=0;bottom=0;right=0;editable=1;overflow=hidden;whiteSpace=wrap;html=1;" parent="v1VUJ-rEYAuuQbZVyOfn-28" vertex="1">
          <mxGeometry width="30" height="30" as="geometry">
            <mxRectangle width="30" height="30" as="alternateBounds" />
          </mxGeometry>
        </mxCell>
        <mxCell id="v1VUJ-rEYAuuQbZVyOfn-30" value="pointWhy" style="shape=partialRectangle;connectable=0;fillColor=none;top=0;left=0;bottom=0;right=0;align=left;spacingLeft=6;overflow=hidden;whiteSpace=wrap;html=1;" parent="v1VUJ-rEYAuuQbZVyOfn-28" vertex="1">
          <mxGeometry x="30" width="180" height="30" as="geometry">
            <mxRectangle width="180" height="30" as="alternateBounds" />
          </mxGeometry>
        </mxCell>
        <mxCell id="v1VUJ-rEYAuuQbZVyOfn-31" value="" style="shape=tableRow;horizontal=0;startSize=0;swimlaneHead=0;swimlaneBody=0;fillColor=none;collapsible=0;dropTarget=0;points=[[0,0.5],[1,0.5]];portConstraint=eastwest;top=0;left=0;right=0;bottom=0;" parent="1" vertex="1">
          <mxGeometry x="521" y="220" width="180" height="30" as="geometry" />
        </mxCell>
        <mxCell id="v1VUJ-rEYAuuQbZVyOfn-32" value="" style="shape=partialRectangle;connectable=0;fillColor=none;top=0;left=0;bottom=0;right=0;editable=1;overflow=hidden;whiteSpace=wrap;html=1;" parent="v1VUJ-rEYAuuQbZVyOfn-31" vertex="1">
          <mxGeometry width="30" height="30" as="geometry">
            <mxRectangle width="30" height="30" as="alternateBounds" />
          </mxGeometry>
        </mxCell>
        <mxCell id="v1VUJ-rEYAuuQbZVyOfn-33" value="pointScore" style="shape=partialRectangle;connectable=0;fillColor=none;top=0;left=0;bottom=0;right=0;align=left;spacingLeft=6;overflow=hidden;whiteSpace=wrap;html=1;" parent="v1VUJ-rEYAuuQbZVyOfn-31" vertex="1">
          <mxGeometry x="30" width="150" height="30" as="geometry">
            <mxRectangle width="150" height="30" as="alternateBounds" />
          </mxGeometry>
        </mxCell>
        <mxCell id="v1VUJ-rEYAuuQbZVyOfn-34" value="PointDef" style="shape=table;startSize=30;container=1;collapsible=1;childLayout=tableLayout;fixedRows=1;rowLines=0;fontStyle=1;align=center;resizeLast=1;html=1;" parent="1" vertex="1">
          <mxGeometry x="810" y="100" width="210" height="150" as="geometry" />
        </mxCell>
        <mxCell id="v1VUJ-rEYAuuQbZVyOfn-35" value="" style="shape=tableRow;horizontal=0;startSize=0;swimlaneHead=0;swimlaneBody=0;fillColor=none;collapsible=0;dropTarget=0;points=[[0,0.5],[1,0.5]];portConstraint=eastwest;top=0;left=0;right=0;bottom=1;" parent="v1VUJ-rEYAuuQbZVyOfn-34" vertex="1">
          <mxGeometry y="30" width="210" height="30" as="geometry" />
        </mxCell>
        <mxCell id="v1VUJ-rEYAuuQbZVyOfn-36" value="PK" style="shape=partialRectangle;connectable=0;fillColor=none;top=0;left=0;bottom=0;right=0;fontStyle=1;overflow=hidden;whiteSpace=wrap;html=1;" parent="v1VUJ-rEYAuuQbZVyOfn-35" vertex="1">
          <mxGeometry width="30" height="30" as="geometry">
            <mxRectangle width="30" height="30" as="alternateBounds" />
          </mxGeometry>
        </mxCell>
        <mxCell id="v1VUJ-rEYAuuQbZVyOfn-37" value="pointWhy&lt;span style=&quot;white-space: pre;&quot;&gt;&#x9;&lt;/span&gt;varchar(20)" style="shape=partialRectangle;connectable=0;fillColor=none;top=0;left=0;bottom=0;right=0;align=left;spacingLeft=6;fontStyle=5;overflow=hidden;whiteSpace=wrap;html=1;" parent="v1VUJ-rEYAuuQbZVyOfn-35" vertex="1">
          <mxGeometry x="30" width="180" height="30" as="geometry">
            <mxRectangle width="180" height="30" as="alternateBounds" />
          </mxGeometry>
        </mxCell>
        <mxCell id="v1VUJ-rEYAuuQbZVyOfn-38" value="" style="shape=tableRow;horizontal=0;startSize=0;swimlaneHead=0;swimlaneBody=0;fillColor=none;collapsible=0;dropTarget=0;points=[[0,0.5],[1,0.5]];portConstraint=eastwest;top=0;left=0;right=0;bottom=0;" parent="v1VUJ-rEYAuuQbZVyOfn-34" vertex="1">
          <mxGeometry y="60" width="210" height="30" as="geometry" />
        </mxCell>
        <mxCell id="v1VUJ-rEYAuuQbZVyOfn-39" value="" style="shape=partialRectangle;connectable=0;fillColor=none;top=0;left=0;bottom=0;right=0;editable=1;overflow=hidden;whiteSpace=wrap;html=1;" parent="v1VUJ-rEYAuuQbZVyOfn-38" vertex="1">
          <mxGeometry width="30" height="30" as="geometry">
            <mxRectangle width="30" height="30" as="alternateBounds" />
          </mxGeometry>
        </mxCell>
        <mxCell id="v1VUJ-rEYAuuQbZVyOfn-40" value="pointScore&lt;span style=&quot;white-space: pre;&quot;&gt;&#x9;&lt;/span&gt;int" style="shape=partialRectangle;connectable=0;fillColor=none;top=0;left=0;bottom=0;right=0;align=left;spacingLeft=6;overflow=hidden;whiteSpace=wrap;html=1;" parent="v1VUJ-rEYAuuQbZVyOfn-38" vertex="1">
          <mxGeometry x="30" width="180" height="30" as="geometry">
            <mxRectangle width="180" height="30" as="alternateBounds" />
          </mxGeometry>
        </mxCell>
        <mxCell id="v1VUJ-rEYAuuQbZVyOfn-41" value="" style="shape=tableRow;horizontal=0;startSize=0;swimlaneHead=0;swimlaneBody=0;fillColor=none;collapsible=0;dropTarget=0;points=[[0,0.5],[1,0.5]];portConstraint=eastwest;top=0;left=0;right=0;bottom=0;" parent="v1VUJ-rEYAuuQbZVyOfn-34" vertex="1">
          <mxGeometry y="90" width="210" height="30" as="geometry" />
        </mxCell>
        <mxCell id="v1VUJ-rEYAuuQbZVyOfn-42" value="" style="shape=partialRectangle;connectable=0;fillColor=none;top=0;left=0;bottom=0;right=0;editable=1;overflow=hidden;whiteSpace=wrap;html=1;" parent="v1VUJ-rEYAuuQbZVyOfn-41" vertex="1">
          <mxGeometry width="30" height="30" as="geometry">
            <mxRectangle width="30" height="30" as="alternateBounds" />
          </mxGeometry>
        </mxCell>
        <mxCell id="v1VUJ-rEYAuuQbZVyOfn-43" value="" style="shape=partialRectangle;connectable=0;fillColor=none;top=0;left=0;bottom=0;right=0;align=left;spacingLeft=6;overflow=hidden;whiteSpace=wrap;html=1;" parent="v1VUJ-rEYAuuQbZVyOfn-41" vertex="1">
          <mxGeometry x="30" width="180" height="30" as="geometry">
            <mxRectangle width="180" height="30" as="alternateBounds" />
          </mxGeometry>
        </mxCell>
        <mxCell id="v1VUJ-rEYAuuQbZVyOfn-44" value="" style="shape=tableRow;horizontal=0;startSize=0;swimlaneHead=0;swimlaneBody=0;fillColor=none;collapsible=0;dropTarget=0;points=[[0,0.5],[1,0.5]];portConstraint=eastwest;top=0;left=0;right=0;bottom=0;" parent="v1VUJ-rEYAuuQbZVyOfn-34" vertex="1">
          <mxGeometry y="120" width="210" height="30" as="geometry" />
        </mxCell>
        <mxCell id="v1VUJ-rEYAuuQbZVyOfn-45" value="" style="shape=partialRectangle;connectable=0;fillColor=none;top=0;left=0;bottom=0;right=0;editable=1;overflow=hidden;whiteSpace=wrap;html=1;" parent="v1VUJ-rEYAuuQbZVyOfn-44" vertex="1">
          <mxGeometry width="30" height="30" as="geometry">
            <mxRectangle width="30" height="30" as="alternateBounds" />
          </mxGeometry>
        </mxCell>
        <mxCell id="v1VUJ-rEYAuuQbZVyOfn-46" value="" style="shape=partialRectangle;connectable=0;fillColor=none;top=0;left=0;bottom=0;right=0;align=left;spacingLeft=6;overflow=hidden;whiteSpace=wrap;html=1;" parent="v1VUJ-rEYAuuQbZVyOfn-44" vertex="1">
          <mxGeometry x="30" width="180" height="30" as="geometry">
            <mxRectangle width="180" height="30" as="alternateBounds" />
          </mxGeometry>
        </mxCell>
        <mxCell id="v1VUJ-rEYAuuQbZVyOfn-51" value="" style="edgeStyle=entityRelationEdgeStyle;fontSize=12;html=1;endArrow=ERzeroToMany;endFill=1;rounded=0;exitX=0;exitY=0.5;exitDx=0;exitDy=0;" parent="1" source="v1VUJ-rEYAuuQbZVyOfn-38" target="v1VUJ-rEYAuuQbZVyOfn-25" edge="1">
          <mxGeometry width="100" height="100" relative="1" as="geometry">
            <mxPoint x="820" y="450" as="sourcePoint" />
            <mxPoint x="920" y="350" as="targetPoint" />
          </mxGeometry>
        </mxCell>
        <mxCell id="v1VUJ-rEYAuuQbZVyOfn-53" value="" style="edgeStyle=entityRelationEdgeStyle;fontSize=12;html=1;endArrow=ERoneToMany;rounded=0;entryX=-0.01;entryY=0.2;entryDx=0;entryDy=0;entryPerimeter=0;" parent="1" target="v1VUJ-rEYAuuQbZVyOfn-25" edge="1">
          <mxGeometry width="100" height="100" relative="1" as="geometry">
            <mxPoint x="360" y="220" as="sourcePoint" />
            <mxPoint x="410" y="410" as="targetPoint" />
          </mxGeometry>
        </mxCell>
        <mxCell id="4WUwOTXDvyv5HhjU8w77-1" value="" style="endArrow=none;dashed=1;html=1;dashPattern=1 3;strokeWidth=2;rounded=0;" parent="1" edge="1">
          <mxGeometry width="50" height="50" relative="1" as="geometry">
            <mxPoint x="260" y="1307" as="sourcePoint" />
            <mxPoint x="260" y="887" as="targetPoint" />
          </mxGeometry>
        </mxCell>
        <mxCell id="4WUwOTXDvyv5HhjU8w77-2" value="" style="endArrow=none;dashed=1;html=1;dashPattern=1 3;strokeWidth=2;rounded=0;" parent="1" edge="1">
          <mxGeometry width="50" height="50" relative="1" as="geometry">
            <mxPoint x="470" y="1312" as="sourcePoint" />
            <mxPoint x="470" y="892" as="targetPoint" />
          </mxGeometry>
        </mxCell>
        <mxCell id="4WUwOTXDvyv5HhjU8w77-3" value="" style="endArrow=none;dashed=1;html=1;dashPattern=1 3;strokeWidth=2;rounded=0;" parent="1" edge="1">
          <mxGeometry width="50" height="50" relative="1" as="geometry">
            <mxPoint x="690" y="1307" as="sourcePoint" />
            <mxPoint x="690" y="887" as="targetPoint" />
          </mxGeometry>
        </mxCell>
        <mxCell id="4WUwOTXDvyv5HhjU8w77-4" value="" style="endArrow=none;dashed=1;html=1;dashPattern=1 3;strokeWidth=2;rounded=0;" parent="1" edge="1">
          <mxGeometry width="50" height="50" relative="1" as="geometry">
            <mxPoint x="920" y="1312" as="sourcePoint" />
            <mxPoint x="920" y="892" as="targetPoint" />
          </mxGeometry>
        </mxCell>
        <mxCell id="4WUwOTXDvyv5HhjU8w77-5" value="DB" style="shape=cylinder3;whiteSpace=wrap;html=1;boundedLbl=1;backgroundOutline=1;size=15;" parent="1" vertex="1">
          <mxGeometry x="1170" y="1022" width="90" height="110" as="geometry" />
        </mxCell>
        <mxCell id="4WUwOTXDvyv5HhjU8w77-6" value="View" style="text;html=1;align=center;verticalAlign=middle;whiteSpace=wrap;rounded=0;" parent="1" vertex="1">
          <mxGeometry x="141" y="867" width="60" height="30" as="geometry" />
        </mxCell>
        <mxCell id="4WUwOTXDvyv5HhjU8w77-7" value="Controller" style="text;html=1;align=center;verticalAlign=middle;whiteSpace=wrap;rounded=0;" parent="1" vertex="1">
          <mxGeometry x="354" y="867" width="60" height="30" as="geometry" />
        </mxCell>
        <mxCell id="4WUwOTXDvyv5HhjU8w77-8" value="Service" style="text;html=1;align=center;verticalAlign=middle;whiteSpace=wrap;rounded=0;" parent="1" vertex="1">
          <mxGeometry x="570" y="867" width="60" height="30" as="geometry" />
        </mxCell>
        <mxCell id="4WUwOTXDvyv5HhjU8w77-9" value="DAO" style="text;html=1;align=center;verticalAlign=middle;whiteSpace=wrap;rounded=0;" parent="1" vertex="1">
          <mxGeometry x="790" y="867" width="60" height="30" as="geometry" />
        </mxCell>
        <mxCell id="4WUwOTXDvyv5HhjU8w77-10" value="" style="endArrow=classic;html=1;rounded=0;" parent="1" edge="1">
          <mxGeometry width="50" height="50" relative="1" as="geometry">
            <mxPoint x="110" y="937" as="sourcePoint" />
            <mxPoint x="460" y="937" as="targetPoint" />
          </mxGeometry>
        </mxCell>
        <mxCell id="4WUwOTXDvyv5HhjU8w77-11" value="① /hboard/listAll" style="text;html=1;align=center;verticalAlign=middle;whiteSpace=wrap;rounded=0;" parent="1" vertex="1">
          <mxGeometry x="320" y="907" width="60" height="30" as="geometry" />
        </mxCell>
        <mxCell id="4WUwOTXDvyv5HhjU8w77-12" value="HBoardController(listAll)" style="text;html=1;align=center;verticalAlign=middle;whiteSpace=wrap;rounded=0;" parent="1" vertex="1">
          <mxGeometry x="440" y="1307" width="60" height="30" as="geometry" />
        </mxCell>
        <mxCell id="4WUwOTXDvyv5HhjU8w77-13" value="HBoard" style="shape=table;startSize=30;container=1;collapsible=1;childLayout=tableLayout;fixedRows=1;rowLines=0;fontStyle=1;align=center;resizeLast=1;html=1;" parent="1" vertex="1">
          <mxGeometry x="441" y="308" width="250" height="302" as="geometry" />
        </mxCell>
        <mxCell id="4WUwOTXDvyv5HhjU8w77-14" value="" style="shape=tableRow;horizontal=0;startSize=0;swimlaneHead=0;swimlaneBody=0;fillColor=none;collapsible=0;dropTarget=0;points=[[0,0.5],[1,0.5]];portConstraint=eastwest;top=0;left=0;right=0;bottom=1;" parent="4WUwOTXDvyv5HhjU8w77-13" vertex="1">
          <mxGeometry y="30" width="250" height="30" as="geometry" />
        </mxCell>
        <mxCell id="4WUwOTXDvyv5HhjU8w77-15" value="PK" style="shape=partialRectangle;connectable=0;fillColor=none;top=0;left=0;bottom=0;right=0;fontStyle=1;overflow=hidden;whiteSpace=wrap;html=1;" parent="4WUwOTXDvyv5HhjU8w77-14" vertex="1">
          <mxGeometry width="30" height="30" as="geometry">
            <mxRectangle width="30" height="30" as="alternateBounds" />
          </mxGeometry>
        </mxCell>
        <mxCell id="4WUwOTXDvyv5HhjU8w77-16" value="boardNo&lt;span style=&quot;white-space: pre;&quot;&gt;&#x9;&lt;/span&gt;&lt;span style=&quot;white-space: pre;&quot;&gt;&#x9;&lt;/span&gt;int&lt;span style=&quot;white-space: pre;&quot;&gt;&#x9;&lt;/span&gt;" style="shape=partialRectangle;connectable=0;fillColor=none;top=0;left=0;bottom=0;right=0;align=left;spacingLeft=6;fontStyle=5;overflow=hidden;whiteSpace=wrap;html=1;" parent="4WUwOTXDvyv5HhjU8w77-14" vertex="1">
          <mxGeometry x="30" width="220" height="30" as="geometry">
            <mxRectangle width="220" height="30" as="alternateBounds" />
          </mxGeometry>
        </mxCell>
        <mxCell id="4WUwOTXDvyv5HhjU8w77-17" value="" style="shape=tableRow;horizontal=0;startSize=0;swimlaneHead=0;swimlaneBody=0;fillColor=none;collapsible=0;dropTarget=0;points=[[0,0.5],[1,0.5]];portConstraint=eastwest;top=0;left=0;right=0;bottom=0;" parent="4WUwOTXDvyv5HhjU8w77-13" vertex="1">
          <mxGeometry y="60" width="250" height="30" as="geometry" />
        </mxCell>
        <mxCell id="4WUwOTXDvyv5HhjU8w77-18" value="" style="shape=partialRectangle;connectable=0;fillColor=none;top=0;left=0;bottom=0;right=0;editable=1;overflow=hidden;whiteSpace=wrap;html=1;" parent="4WUwOTXDvyv5HhjU8w77-17" vertex="1">
          <mxGeometry width="30" height="30" as="geometry">
            <mxRectangle width="30" height="30" as="alternateBounds" />
          </mxGeometry>
        </mxCell>
        <mxCell id="4WUwOTXDvyv5HhjU8w77-19" value="title&lt;span style=&quot;white-space: pre;&quot;&gt;&#x9;&lt;/span&gt;&lt;span style=&quot;white-space: pre;&quot;&gt;&#x9;&lt;/span&gt;varchar(20)&amp;nbsp; &amp;nbsp; not null" style="shape=partialRectangle;connectable=0;fillColor=none;top=0;left=0;bottom=0;right=0;align=left;spacingLeft=6;overflow=hidden;whiteSpace=wrap;html=1;" parent="4WUwOTXDvyv5HhjU8w77-17" vertex="1">
          <mxGeometry x="30" width="220" height="30" as="geometry">
            <mxRectangle width="220" height="30" as="alternateBounds" />
          </mxGeometry>
        </mxCell>
        <mxCell id="4WUwOTXDvyv5HhjU8w77-20" value="" style="shape=tableRow;horizontal=0;startSize=0;swimlaneHead=0;swimlaneBody=0;fillColor=none;collapsible=0;dropTarget=0;points=[[0,0.5],[1,0.5]];portConstraint=eastwest;top=0;left=0;right=0;bottom=0;" parent="4WUwOTXDvyv5HhjU8w77-13" vertex="1">
          <mxGeometry y="90" width="250" height="30" as="geometry" />
        </mxCell>
        <mxCell id="4WUwOTXDvyv5HhjU8w77-21" value="" style="shape=partialRectangle;connectable=0;fillColor=none;top=0;left=0;bottom=0;right=0;editable=1;overflow=hidden;whiteSpace=wrap;html=1;" parent="4WUwOTXDvyv5HhjU8w77-20" vertex="1">
          <mxGeometry width="30" height="30" as="geometry">
            <mxRectangle width="30" height="30" as="alternateBounds" />
          </mxGeometry>
        </mxCell>
        <mxCell id="4WUwOTXDvyv5HhjU8w77-22" value="content&lt;span style=&quot;white-space: pre;&quot;&gt;&#x9;&lt;/span&gt;varchar(2000)" style="shape=partialRectangle;connectable=0;fillColor=none;top=0;left=0;bottom=0;right=0;align=left;spacingLeft=6;overflow=hidden;whiteSpace=wrap;html=1;" parent="4WUwOTXDvyv5HhjU8w77-20" vertex="1">
          <mxGeometry x="30" width="220" height="30" as="geometry">
            <mxRectangle width="220" height="30" as="alternateBounds" />
          </mxGeometry>
        </mxCell>
        <mxCell id="4WUwOTXDvyv5HhjU8w77-23" value="" style="shape=tableRow;horizontal=0;startSize=0;swimlaneHead=0;swimlaneBody=0;fillColor=none;collapsible=0;dropTarget=0;points=[[0,0.5],[1,0.5]];portConstraint=eastwest;top=0;left=0;right=0;bottom=0;" parent="4WUwOTXDvyv5HhjU8w77-13" vertex="1">
          <mxGeometry y="120" width="250" height="30" as="geometry" />
        </mxCell>
        <mxCell id="4WUwOTXDvyv5HhjU8w77-24" value="" style="shape=partialRectangle;connectable=0;fillColor=none;top=0;left=0;bottom=0;right=0;editable=1;overflow=hidden;whiteSpace=wrap;html=1;" parent="4WUwOTXDvyv5HhjU8w77-23" vertex="1">
          <mxGeometry width="30" height="30" as="geometry">
            <mxRectangle width="30" height="30" as="alternateBounds" />
          </mxGeometry>
        </mxCell>
        <mxCell id="4WUwOTXDvyv5HhjU8w77-25" value="writer&lt;span style=&quot;white-space: pre;&quot;&gt;&#x9;&lt;/span&gt;varchar(8)&amp;nbsp; &amp;nbsp; &amp;nbsp; &amp;nbsp;FK" style="shape=partialRectangle;connectable=0;fillColor=none;top=0;left=0;bottom=0;right=0;align=left;spacingLeft=6;overflow=hidden;whiteSpace=wrap;html=1;" parent="4WUwOTXDvyv5HhjU8w77-23" vertex="1">
          <mxGeometry x="30" width="220" height="30" as="geometry">
            <mxRectangle width="220" height="30" as="alternateBounds" />
          </mxGeometry>
        </mxCell>
        <mxCell id="4WUwOTXDvyv5HhjU8w77-32" style="shape=tableRow;horizontal=0;startSize=0;swimlaneHead=0;swimlaneBody=0;fillColor=none;collapsible=0;dropTarget=0;points=[[0,0.5],[1,0.5]];portConstraint=eastwest;top=0;left=0;right=0;bottom=0;" parent="4WUwOTXDvyv5HhjU8w77-13" vertex="1">
          <mxGeometry y="150" width="250" height="30" as="geometry" />
        </mxCell>
        <mxCell id="4WUwOTXDvyv5HhjU8w77-33" style="shape=partialRectangle;connectable=0;fillColor=none;top=0;left=0;bottom=0;right=0;editable=1;overflow=hidden;whiteSpace=wrap;html=1;" parent="4WUwOTXDvyv5HhjU8w77-32" vertex="1">
          <mxGeometry width="30" height="30" as="geometry">
            <mxRectangle width="30" height="30" as="alternateBounds" />
          </mxGeometry>
        </mxCell>
        <mxCell id="4WUwOTXDvyv5HhjU8w77-34" value="postDate&lt;span style=&quot;white-space: pre;&quot;&gt;&#x9;&lt;/span&gt;DateTime&amp;nbsp; &amp;nbsp; &amp;nbsp; &amp;nbsp;" style="shape=partialRectangle;connectable=0;fillColor=none;top=0;left=0;bottom=0;right=0;align=left;spacingLeft=6;overflow=hidden;whiteSpace=wrap;html=1;" parent="4WUwOTXDvyv5HhjU8w77-32" vertex="1">
          <mxGeometry x="30" width="220" height="30" as="geometry">
            <mxRectangle width="220" height="30" as="alternateBounds" />
          </mxGeometry>
        </mxCell>
        <mxCell id="4WUwOTXDvyv5HhjU8w77-35" style="shape=tableRow;horizontal=0;startSize=0;swimlaneHead=0;swimlaneBody=0;fillColor=none;collapsible=0;dropTarget=0;points=[[0,0.5],[1,0.5]];portConstraint=eastwest;top=0;left=0;right=0;bottom=0;" parent="4WUwOTXDvyv5HhjU8w77-13" vertex="1">
          <mxGeometry y="180" width="250" height="30" as="geometry" />
        </mxCell>
        <mxCell id="4WUwOTXDvyv5HhjU8w77-36" style="shape=partialRectangle;connectable=0;fillColor=none;top=0;left=0;bottom=0;right=0;editable=1;overflow=hidden;whiteSpace=wrap;html=1;" parent="4WUwOTXDvyv5HhjU8w77-35" vertex="1">
          <mxGeometry width="30" height="30" as="geometry">
            <mxRectangle width="30" height="30" as="alternateBounds" />
          </mxGeometry>
        </mxCell>
        <mxCell id="4WUwOTXDvyv5HhjU8w77-37" value="readCount&amp;nbsp; &amp;nbsp; &amp;nbsp; int" style="shape=partialRectangle;connectable=0;fillColor=none;top=0;left=0;bottom=0;right=0;align=left;spacingLeft=6;overflow=hidden;whiteSpace=wrap;html=1;" parent="4WUwOTXDvyv5HhjU8w77-35" vertex="1">
          <mxGeometry x="30" width="220" height="30" as="geometry">
            <mxRectangle width="220" height="30" as="alternateBounds" />
          </mxGeometry>
        </mxCell>
        <mxCell id="4WUwOTXDvyv5HhjU8w77-44" style="shape=tableRow;horizontal=0;startSize=0;swimlaneHead=0;swimlaneBody=0;fillColor=none;collapsible=0;dropTarget=0;points=[[0,0.5],[1,0.5]];portConstraint=eastwest;top=0;left=0;right=0;bottom=0;" parent="4WUwOTXDvyv5HhjU8w77-13" vertex="1">
          <mxGeometry y="210" width="250" height="30" as="geometry" />
        </mxCell>
        <mxCell id="4WUwOTXDvyv5HhjU8w77-45" style="shape=partialRectangle;connectable=0;fillColor=none;top=0;left=0;bottom=0;right=0;editable=1;overflow=hidden;whiteSpace=wrap;html=1;" parent="4WUwOTXDvyv5HhjU8w77-44" vertex="1">
          <mxGeometry width="30" height="30" as="geometry">
            <mxRectangle width="30" height="30" as="alternateBounds" />
          </mxGeometry>
        </mxCell>
        <mxCell id="4WUwOTXDvyv5HhjU8w77-46" value="ref&lt;span style=&quot;white-space: pre;&quot;&gt;&#x9;&lt;/span&gt;&lt;span style=&quot;white-space: pre;&quot;&gt;&#x9;&lt;/span&gt;&amp;nbsp;int" style="shape=partialRectangle;connectable=0;fillColor=none;top=0;left=0;bottom=0;right=0;align=left;spacingLeft=6;overflow=hidden;whiteSpace=wrap;html=1;" parent="4WUwOTXDvyv5HhjU8w77-44" vertex="1">
          <mxGeometry x="30" width="220" height="30" as="geometry">
            <mxRectangle width="220" height="30" as="alternateBounds" />
          </mxGeometry>
        </mxCell>
        <mxCell id="4WUwOTXDvyv5HhjU8w77-41" style="shape=tableRow;horizontal=0;startSize=0;swimlaneHead=0;swimlaneBody=0;fillColor=none;collapsible=0;dropTarget=0;points=[[0,0.5],[1,0.5]];portConstraint=eastwest;top=0;left=0;right=0;bottom=0;" parent="4WUwOTXDvyv5HhjU8w77-13" vertex="1">
          <mxGeometry y="240" width="250" height="30" as="geometry" />
        </mxCell>
        <mxCell id="4WUwOTXDvyv5HhjU8w77-42" style="shape=partialRectangle;connectable=0;fillColor=none;top=0;left=0;bottom=0;right=0;editable=1;overflow=hidden;whiteSpace=wrap;html=1;" parent="4WUwOTXDvyv5HhjU8w77-41" vertex="1">
          <mxGeometry width="30" height="30" as="geometry">
            <mxRectangle width="30" height="30" as="alternateBounds" />
          </mxGeometry>
        </mxCell>
        <mxCell id="4WUwOTXDvyv5HhjU8w77-43" value="step&lt;span style=&quot;white-space: pre;&quot;&gt;&#x9;&lt;/span&gt;&lt;span style=&quot;white-space: pre;&quot;&gt;&#x9;&lt;/span&gt;int" style="shape=partialRectangle;connectable=0;fillColor=none;top=0;left=0;bottom=0;right=0;align=left;spacingLeft=6;overflow=hidden;whiteSpace=wrap;html=1;" parent="4WUwOTXDvyv5HhjU8w77-41" vertex="1">
          <mxGeometry x="30" width="220" height="30" as="geometry">
            <mxRectangle width="220" height="30" as="alternateBounds" />
          </mxGeometry>
        </mxCell>
        <mxCell id="4WUwOTXDvyv5HhjU8w77-38" style="shape=tableRow;horizontal=0;startSize=0;swimlaneHead=0;swimlaneBody=0;fillColor=none;collapsible=0;dropTarget=0;points=[[0,0.5],[1,0.5]];portConstraint=eastwest;top=0;left=0;right=0;bottom=0;" parent="4WUwOTXDvyv5HhjU8w77-13" vertex="1">
          <mxGeometry y="270" width="250" height="30" as="geometry" />
        </mxCell>
        <mxCell id="4WUwOTXDvyv5HhjU8w77-39" style="shape=partialRectangle;connectable=0;fillColor=none;top=0;left=0;bottom=0;right=0;editable=1;overflow=hidden;whiteSpace=wrap;html=1;" parent="4WUwOTXDvyv5HhjU8w77-38" vertex="1">
          <mxGeometry width="30" height="30" as="geometry">
            <mxRectangle width="30" height="30" as="alternateBounds" />
          </mxGeometry>
        </mxCell>
        <mxCell id="4WUwOTXDvyv5HhjU8w77-40" value="refOrder&amp;nbsp; &amp;nbsp; &amp;nbsp;int" style="shape=partialRectangle;connectable=0;fillColor=none;top=0;left=0;bottom=0;right=0;align=left;spacingLeft=6;overflow=hidden;whiteSpace=wrap;html=1;" parent="4WUwOTXDvyv5HhjU8w77-38" vertex="1">
          <mxGeometry x="30" width="220" height="30" as="geometry">
            <mxRectangle width="220" height="30" as="alternateBounds" />
          </mxGeometry>
        </mxCell>
        <mxCell id="4WUwOTXDvyv5HhjU8w77-28" value="" style="shape=partialRectangle;connectable=0;fillColor=none;top=0;left=0;bottom=0;right=0;align=left;spacingLeft=6;overflow=hidden;whiteSpace=wrap;html=1;" parent="1" vertex="1">
          <mxGeometry x="770" y="520" width="220" height="30" as="geometry">
            <mxRectangle width="220" height="30" as="alternateBounds" />
          </mxGeometry>
        </mxCell>
        <mxCell id="4WUwOTXDvyv5HhjU8w77-29" value="" style="shape=partialRectangle;connectable=0;fillColor=none;top=0;left=0;bottom=0;right=0;align=left;spacingLeft=6;overflow=hidden;whiteSpace=wrap;html=1;" parent="1" vertex="1">
          <mxGeometry x="730" y="579" width="220" height="30" as="geometry">
            <mxRectangle width="220" height="30" as="alternateBounds" />
          </mxGeometry>
        </mxCell>
        <mxCell id="4WUwOTXDvyv5HhjU8w77-30" value="" style="shape=partialRectangle;connectable=0;fillColor=none;top=0;left=0;bottom=0;right=0;align=left;spacingLeft=6;overflow=hidden;whiteSpace=wrap;html=1;" parent="1" vertex="1">
          <mxGeometry x="770" y="630" width="220" height="30" as="geometry">
            <mxRectangle width="220" height="30" as="alternateBounds" />
          </mxGeometry>
        </mxCell>
        <mxCell id="4WUwOTXDvyv5HhjU8w77-31" value="" style="edgeStyle=entityRelationEdgeStyle;fontSize=12;html=1;endArrow=ERzeroToMany;endFill=1;rounded=0;entryX=0;entryY=0.5;entryDx=0;entryDy=0;" parent="1" target="4WUwOTXDvyv5HhjU8w77-23" edge="1">
          <mxGeometry width="100" height="100" relative="1" as="geometry">
            <mxPoint x="360" y="320" as="sourcePoint" />
            <mxPoint x="340" y="560" as="targetPoint" />
          </mxGeometry>
        </mxCell>
        <mxCell id="j3T_7trPfkCfebggVuWX-1" value="" style="endArrow=classic;html=1;rounded=0;" parent="1" edge="1">
          <mxGeometry width="50" height="50" relative="1" as="geometry">
            <mxPoint x="471" y="952" as="sourcePoint" />
            <mxPoint x="691" y="952" as="targetPoint" />
          </mxGeometry>
        </mxCell>
        <mxCell id="j3T_7trPfkCfebggVuWX-2" value="② getAllBoard()" style="text;html=1;align=center;verticalAlign=middle;whiteSpace=wrap;rounded=0;" parent="1" vertex="1">
          <mxGeometry x="550" y="920" width="60" height="30" as="geometry" />
        </mxCell>
        <mxCell id="j3T_7trPfkCfebggVuWX-3" value="HBoardServiceImpl&lt;div&gt;&lt;br&gt;&lt;/div&gt;" style="text;html=1;align=center;verticalAlign=middle;whiteSpace=wrap;rounded=0;" parent="1" vertex="1">
          <mxGeometry x="670" y="1307" width="60" height="30" as="geometry" />
        </mxCell>
        <mxCell id="j3T_7trPfkCfebggVuWX-4" value="" style="endArrow=classic;html=1;rounded=0;" parent="1" edge="1">
          <mxGeometry width="50" height="50" relative="1" as="geometry">
            <mxPoint x="691" y="967" as="sourcePoint" />
            <mxPoint x="920" y="967" as="targetPoint" />
          </mxGeometry>
        </mxCell>
        <mxCell id="j3T_7trPfkCfebggVuWX-6" value="③&lt;div&gt;select&lt;div&gt;AllBoard()&lt;/div&gt;&lt;/div&gt;" style="text;html=1;align=center;verticalAlign=middle;whiteSpace=wrap;rounded=0;" parent="1" vertex="1">
          <mxGeometry x="790" y="930" width="60" height="30" as="geometry" />
        </mxCell>
        <mxCell id="j3T_7trPfkCfebggVuWX-7" value="HBoardDAOImpl" style="text;html=1;align=center;verticalAlign=middle;whiteSpace=wrap;rounded=0;" parent="1" vertex="1">
          <mxGeometry x="890" y="1317" width="60" height="30" as="geometry" />
        </mxCell>
        <mxCell id="j3T_7trPfkCfebggVuWX-8" value="" style="endArrow=classic;html=1;rounded=0;" parent="1" edge="1">
          <mxGeometry width="50" height="50" relative="1" as="geometry">
            <mxPoint x="920" y="1030" as="sourcePoint" />
            <mxPoint x="1150" y="1030" as="targetPoint" />
          </mxGeometry>
        </mxCell>
        <mxCell id="j3T_7trPfkCfebggVuWX-9" value="④com.miniproj.mappers.hboardmapper.getAllHBoard&lt;span style=&quot;color: rgba(0, 0, 0, 0); font-family: monospace; font-size: 0px; text-align: start; text-wrap: nowrap;&quot;&gt;%3CmxGraphModel%3E%3Croot%3E%3CmxCell%20id%3D%220%22%2F%3E%3CmxCell%20id%3D%221%22%20parent%3D%220%22%2F%3E%3CmxCell%20id%3D%222%22%20value%3D%22%E2%91%A2%26lt%3Bdiv%26gt%3Bselect%26lt%3Bdiv%26gt%3BAllBoard()%26lt%3B%2Fdiv%26gt%3B%26lt%3B%2Fdiv%26gt%3B%22%20style%3D%22text%3Bhtml%3D1%3Balign%3Dcenter%3BverticalAlign%3Dmiddle%3BwhiteSpace%3Dwrap%3Brounded%3D0%3B%22%20vertex%3D%221%22%20parent%3D%221%22%3E%3CmxGeometry%20x%3D%22790%22%20y%3D%22930%22%20width%3D%2260%22%20height%3D%2230%22%20as%3D%22geometry%22%2F%3E%3C%2FmxCell%3E%3C%2Froot%3E%3C%2FmxGraphModel%3E&lt;/span&gt;&lt;span style=&quot;color: rgba(0, 0, 0, 0); font-family: monospace; font-size: 0px; text-align: start; text-wrap: nowrap;&quot;&gt;%3CmxGraphModel%3E%3Croot%3E%3CmxCell%20id%3D%220%22%2F%3E%3CmxCell%20id%3D%221%22%20parent%3D%220%22%2F%3E%3CmxCell%20id%3D%222%22%20value%3D%22%E2%91%A2%26lt%3Bdiv%26gt%3Bselect%26lt%3Bdiv%26gt%3BAllBoard()%26lt%3B%2Fdiv%26gt%3B%26lt%3B%2Fdiv%26gt%3B%22%20style%3D%22text%3Bhtml%3D1%3Balign%3Dcenter%3BverticalAlign%3Dmiddle%3BwhiteSpace%3Dwrap%3Brounded%3D0%3B%22%20vertex%3D%221%22%20parent%3D%221%22%3E%3CmxGeometry%20x%3D%22790%22%20y%3D%22930%22%20width%3D%2260%22%20height%3D%2230%22%20as%3D%22geometry%22%2F%3E%3C%2FmxCell%3E%3C%2Froot%3E%3C%2FmxGraphModel%3E&lt;/span&gt;" style="text;html=1;align=center;verticalAlign=middle;whiteSpace=wrap;rounded=0;" parent="1" vertex="1">
          <mxGeometry x="1050" y="990" width="60" height="30" as="geometry" />
        </mxCell>
        <mxCell id="j3T_7trPfkCfebggVuWX-10" value="" style="endArrow=classic;html=1;rounded=0;" parent="1" edge="1">
          <mxGeometry width="50" height="50" relative="1" as="geometry">
            <mxPoint x="1160" y="1080" as="sourcePoint" />
            <mxPoint x="930" y="1080" as="targetPoint" />
          </mxGeometry>
        </mxCell>
        <mxCell id="j3T_7trPfkCfebggVuWX-11" value="⑤ List&amp;lt;HBoardVO&amp;gt;" style="text;html=1;align=center;verticalAlign=middle;whiteSpace=wrap;rounded=0;" parent="1" vertex="1">
          <mxGeometry x="1000" y="1090" width="60" height="30" as="geometry" />
        </mxCell>
        <mxCell id="j3T_7trPfkCfebggVuWX-12" value="" style="endArrow=classic;html=1;rounded=0;" parent="1" edge="1">
          <mxGeometry width="50" height="50" relative="1" as="geometry">
            <mxPoint x="920" y="1104.5" as="sourcePoint" />
            <mxPoint x="690" y="1104.5" as="targetPoint" />
          </mxGeometry>
        </mxCell>
        <mxCell id="j3T_7trPfkCfebggVuWX-13" value="⑥ List&amp;lt;HBoardVO&amp;gt;" style="text;html=1;align=center;verticalAlign=middle;whiteSpace=wrap;rounded=0;" parent="1" vertex="1">
          <mxGeometry x="767" y="1110" width="60" height="30" as="geometry" />
        </mxCell>
        <mxCell id="j3T_7trPfkCfebggVuWX-14" value="" style="endArrow=classic;html=1;rounded=0;" parent="1" edge="1">
          <mxGeometry width="50" height="50" relative="1" as="geometry">
            <mxPoint x="691" y="1140" as="sourcePoint" />
            <mxPoint x="461" y="1140" as="targetPoint" />
          </mxGeometry>
        </mxCell>
        <mxCell id="j3T_7trPfkCfebggVuWX-15" value="⑦ List&amp;lt;HBoardVO&amp;gt;" style="text;html=1;align=center;verticalAlign=middle;whiteSpace=wrap;rounded=0;" parent="1" vertex="1">
          <mxGeometry x="538" y="1145.5" width="60" height="30" as="geometry" />
        </mxCell>
        <mxCell id="j3T_7trPfkCfebggVuWX-16" value="" style="endArrow=classic;html=1;rounded=0;" parent="1" edge="1">
          <mxGeometry width="50" height="50" relative="1" as="geometry">
            <mxPoint x="470" y="1176" as="sourcePoint" />
            <mxPoint x="120" y="1180" as="targetPoint" />
          </mxGeometry>
        </mxCell>
        <mxCell id="j3T_7trPfkCfebggVuWX-17" value="⑧ List&amp;lt;HBoardVO&amp;gt;" style="text;html=1;align=center;verticalAlign=middle;whiteSpace=wrap;rounded=0;" parent="1" vertex="1">
          <mxGeometry x="327" y="1181" width="60" height="30" as="geometry" />
        </mxCell>
        <mxCell id="j3T_7trPfkCfebggVuWX-18" value="/hboard/listAll.jsp" style="text;html=1;align=center;verticalAlign=middle;whiteSpace=wrap;rounded=0;" parent="1" vertex="1">
          <mxGeometry x="220" y="1307" width="60" height="30" as="geometry" />
        </mxCell>
        <mxCell id="j3T_7trPfkCfebggVuWX-19" value="&lt;b&gt;&lt;font style=&quot;font-size: 14px;&quot;&gt;계층형 게시판 전체 목록 출력 기능&lt;/font&gt;&lt;/b&gt;" style="text;html=1;align=center;verticalAlign=middle;whiteSpace=wrap;rounded=0;" parent="1" vertex="1">
          <mxGeometry x="130" y="800" width="450" height="30" as="geometry" />
        </mxCell>
        <mxCell id="j3T_7trPfkCfebggVuWX-20" value="" style="endArrow=none;dashed=1;html=1;dashPattern=1 3;strokeWidth=2;rounded=0;" parent="1" edge="1">
          <mxGeometry width="50" height="50" relative="1" as="geometry">
            <mxPoint x="270" y="2014" as="sourcePoint" />
            <mxPoint x="270" y="1594" as="targetPoint" />
          </mxGeometry>
        </mxCell>
        <mxCell id="j3T_7trPfkCfebggVuWX-21" value="" style="endArrow=none;dashed=1;html=1;dashPattern=1 3;strokeWidth=2;rounded=0;" parent="1" edge="1">
          <mxGeometry width="50" height="50" relative="1" as="geometry">
            <mxPoint x="480" y="2019" as="sourcePoint" />
            <mxPoint x="480" y="1599" as="targetPoint" />
          </mxGeometry>
        </mxCell>
        <mxCell id="j3T_7trPfkCfebggVuWX-22" value="" style="endArrow=none;dashed=1;html=1;dashPattern=1 3;strokeWidth=2;rounded=0;" parent="1" edge="1">
          <mxGeometry width="50" height="50" relative="1" as="geometry">
            <mxPoint x="700" y="2014" as="sourcePoint" />
            <mxPoint x="700" y="1594" as="targetPoint" />
          </mxGeometry>
        </mxCell>
        <mxCell id="j3T_7trPfkCfebggVuWX-23" value="" style="endArrow=none;dashed=1;html=1;dashPattern=1 3;strokeWidth=2;rounded=0;" parent="1" edge="1">
          <mxGeometry width="50" height="50" relative="1" as="geometry">
            <mxPoint x="980" y="2020" as="sourcePoint" />
            <mxPoint x="980" y="1600" as="targetPoint" />
          </mxGeometry>
        </mxCell>
        <mxCell id="j3T_7trPfkCfebggVuWX-24" value="DB" style="shape=cylinder3;whiteSpace=wrap;html=1;boundedLbl=1;backgroundOutline=1;size=15;" parent="1" vertex="1">
          <mxGeometry x="1180" y="1729" width="90" height="110" as="geometry" />
        </mxCell>
        <mxCell id="j3T_7trPfkCfebggVuWX-25" value="View" style="text;html=1;align=center;verticalAlign=middle;whiteSpace=wrap;rounded=0;" parent="1" vertex="1">
          <mxGeometry x="240" y="1574" width="60" height="30" as="geometry" />
        </mxCell>
        <mxCell id="j3T_7trPfkCfebggVuWX-26" value="Controller" style="text;html=1;align=center;verticalAlign=middle;whiteSpace=wrap;rounded=0;" parent="1" vertex="1">
          <mxGeometry x="441" y="1574" width="60" height="30" as="geometry" />
        </mxCell>
        <mxCell id="j3T_7trPfkCfebggVuWX-27" value="Service" style="text;html=1;align=center;verticalAlign=middle;whiteSpace=wrap;rounded=0;" parent="1" vertex="1">
          <mxGeometry x="660" y="1570" width="60" height="30" as="geometry" />
        </mxCell>
        <mxCell id="j3T_7trPfkCfebggVuWX-28" value="DAO" style="text;html=1;align=center;verticalAlign=middle;whiteSpace=wrap;rounded=0;" parent="1" vertex="1">
          <mxGeometry x="950" y="1574" width="60" height="30" as="geometry" />
        </mxCell>
        <mxCell id="j3T_7trPfkCfebggVuWX-31" value="HBoardController(showSaveBoardForm)" style="text;html=1;align=center;verticalAlign=middle;whiteSpace=wrap;rounded=0;" parent="1" vertex="1">
          <mxGeometry x="450" y="2014" width="60" height="30" as="geometry" />
        </mxCell>
        <mxCell id="j3T_7trPfkCfebggVuWX-34" value="HBoardServiceImpl&lt;div&gt;&lt;br&gt;&lt;/div&gt;" style="text;html=1;align=center;verticalAlign=middle;whiteSpace=wrap;rounded=0;" parent="1" vertex="1">
          <mxGeometry x="680" y="2014" width="60" height="30" as="geometry" />
        </mxCell>
        <mxCell id="j3T_7trPfkCfebggVuWX-37" value="HBoardDAOImpl" style="text;html=1;align=center;verticalAlign=middle;whiteSpace=wrap;rounded=0;" parent="1" vertex="1">
          <mxGeometry x="950" y="2014" width="60" height="30" as="geometry" />
        </mxCell>
        <mxCell id="j3T_7trPfkCfebggVuWX-38" value="" style="endArrow=classic;html=1;rounded=0;" parent="1" edge="1">
          <mxGeometry width="50" height="50" relative="1" as="geometry">
            <mxPoint x="980" y="1770" as="sourcePoint" />
            <mxPoint x="1170" y="1770" as="targetPoint" />
          </mxGeometry>
        </mxCell>
        <mxCell id="j3T_7trPfkCfebggVuWX-42" value="" style="endArrow=classic;html=1;rounded=0;" parent="1" edge="1">
          <mxGeometry width="50" height="50" relative="1" as="geometry">
            <mxPoint x="970" y="1839" as="sourcePoint" />
            <mxPoint x="701" y="1839" as="targetPoint" />
          </mxGeometry>
        </mxCell>
        <mxCell id="j3T_7trPfkCfebggVuWX-44" value="" style="endArrow=classic;html=1;rounded=0;" parent="1" edge="1">
          <mxGeometry width="50" height="50" relative="1" as="geometry">
            <mxPoint x="701" y="1847" as="sourcePoint" />
            <mxPoint x="471" y="1847" as="targetPoint" />
          </mxGeometry>
        </mxCell>
        <mxCell id="j3T_7trPfkCfebggVuWX-46" value="" style="endArrow=classic;html=1;rounded=0;" parent="1" target="9c0eWsxeaRTerHUzf7l6-9" edge="1">
          <mxGeometry width="50" height="50" relative="1" as="geometry">
            <mxPoint x="480" y="1883" as="sourcePoint" />
            <mxPoint x="130" y="1887" as="targetPoint" />
          </mxGeometry>
        </mxCell>
        <mxCell id="j3T_7trPfkCfebggVuWX-48" value="/hboard/listAll.jsp" style="text;html=1;align=center;verticalAlign=middle;whiteSpace=wrap;rounded=0;" parent="1" vertex="1">
          <mxGeometry x="230" y="2014" width="60" height="30" as="geometry" />
        </mxCell>
        <mxCell id="j3T_7trPfkCfebggVuWX-49" value="&lt;b&gt;&lt;font style=&quot;font-size: 14px;&quot;&gt;계층형 게시판 글 작성 기능&lt;/font&gt;&lt;/b&gt;" style="text;html=1;align=center;verticalAlign=middle;whiteSpace=wrap;rounded=0;" parent="1" vertex="1">
          <mxGeometry x="60" y="1510" width="450" height="30" as="geometry" />
        </mxCell>
        <mxCell id="j3T_7trPfkCfebggVuWX-50" value="" style="endArrow=classic;html=1;rounded=0;" parent="1" edge="1">
          <mxGeometry width="50" height="50" relative="1" as="geometry">
            <mxPoint x="130" y="1630" as="sourcePoint" />
            <mxPoint x="470" y="1630" as="targetPoint" />
          </mxGeometry>
        </mxCell>
        <mxCell id="j3T_7trPfkCfebggVuWX-51" value="① /hboard/saveBoard(GET)" style="text;html=1;align=center;verticalAlign=middle;whiteSpace=wrap;rounded=0;" parent="1" vertex="1">
          <mxGeometry x="300" y="1600" width="60" height="30" as="geometry" />
        </mxCell>
        <mxCell id="j3T_7trPfkCfebggVuWX-52" value="" style="endArrow=classic;html=1;rounded=0;" parent="1" edge="1">
          <mxGeometry width="50" height="50" relative="1" as="geometry">
            <mxPoint x="470" y="1660" as="sourcePoint" />
            <mxPoint x="120" y="1660" as="targetPoint" />
          </mxGeometry>
        </mxCell>
        <mxCell id="j3T_7trPfkCfebggVuWX-53" value="② /hboard/saveBoardForm.jsp" style="text;html=1;align=center;verticalAlign=middle;whiteSpace=wrap;rounded=0;" parent="1" vertex="1">
          <mxGeometry x="267" y="1640" width="60" height="30" as="geometry" />
        </mxCell>
        <mxCell id="hhJx4wWavHGiA69MvEGN-1" value="" style="endArrow=classic;html=1;rounded=0;" parent="1" edge="1">
          <mxGeometry width="50" height="50" relative="1" as="geometry">
            <mxPoint x="122" y="1710" as="sourcePoint" />
            <mxPoint x="472" y="1710" as="targetPoint" />
          </mxGeometry>
        </mxCell>
        <mxCell id="hhJx4wWavHGiA69MvEGN-3" value="③ /hboard/saveBoard(POST)" style="text;html=1;align=center;verticalAlign=middle;whiteSpace=wrap;rounded=0;" parent="1" vertex="1">
          <mxGeometry x="267" y="1680" width="60" height="30" as="geometry" />
        </mxCell>
        <mxCell id="9c0eWsxeaRTerHUzf7l6-1" value="" style="endArrow=classic;html=1;rounded=0;" parent="1" edge="1">
          <mxGeometry width="50" height="50" relative="1" as="geometry">
            <mxPoint x="490" y="1730" as="sourcePoint" />
            <mxPoint x="700" y="1730" as="targetPoint" />
          </mxGeometry>
        </mxCell>
        <mxCell id="9c0eWsxeaRTerHUzf7l6-2" value="④ saveBoard(HBoardDTO newBoard)" style="text;html=1;align=center;verticalAlign=middle;whiteSpace=wrap;rounded=0;" parent="1" vertex="1">
          <mxGeometry x="570" y="1698" width="60" height="30" as="geometry" />
        </mxCell>
        <mxCell id="9c0eWsxeaRTerHUzf7l6-4" value="" style="endArrow=classic;html=1;rounded=0;" parent="1" edge="1">
          <mxGeometry width="50" height="50" relative="1" as="geometry">
            <mxPoint x="710" y="1750" as="sourcePoint" />
            <mxPoint x="970" y="1750" as="targetPoint" />
          </mxGeometry>
        </mxCell>
        <mxCell id="9c0eWsxeaRTerHUzf7l6-5" value="" style="endArrow=classic;html=1;rounded=0;" parent="1" edge="1">
          <mxGeometry width="50" height="50" relative="1" as="geometry">
            <mxPoint x="1160" y="1820" as="sourcePoint" />
            <mxPoint x="990" y="1820" as="targetPoint" />
          </mxGeometry>
        </mxCell>
        <mxCell id="9c0eWsxeaRTerHUzf7l6-7" value="⑤&lt;div&gt;bDao.insertNewBoard(newBoard)&lt;br&gt;&lt;/div&gt;&lt;div&gt;(pDao.insertPointLog(new PointLogDTO(newBoard.getWriter(), &quot;글작성&quot;, 0))&lt;br&gt;&lt;/div&gt;&lt;div&gt;mDao.updateUserPoint(newBoard.getWriter())&lt;br&gt;&lt;/div&gt;" style="text;html=1;align=center;verticalAlign=middle;whiteSpace=wrap;rounded=0;" parent="1" vertex="1">
          <mxGeometry x="810" y="1680" width="60" height="30" as="geometry" />
        </mxCell>
        <mxCell id="9c0eWsxeaRTerHUzf7l6-8" value="boolean" style="text;html=1;align=center;verticalAlign=middle;whiteSpace=wrap;rounded=0;" parent="1" vertex="1">
          <mxGeometry x="570" y="1820" width="60" height="30" as="geometry" />
        </mxCell>
        <mxCell id="9c0eWsxeaRTerHUzf7l6-9" value="redirect&lt;span style=&quot;background-color: initial;&quot;&gt;:/hboard/listAll&lt;/span&gt;&lt;div&gt;&lt;div&gt;&lt;br&gt;&lt;/div&gt;&lt;/div&gt;" style="text;html=1;align=center;verticalAlign=middle;whiteSpace=wrap;rounded=0;" parent="1" vertex="1">
          <mxGeometry x="100" y="1872" width="60" height="30" as="geometry" />
        </mxCell>
        <mxCell id="Yi69IR74LSKM_OkzsTnB-1" value="boardImg" style="shape=table;startSize=30;container=1;collapsible=1;childLayout=tableLayout;fixedRows=1;rowLines=0;fontStyle=1;align=center;resizeLast=1;html=1;" parent="1" vertex="1">
          <mxGeometry x="780" y="315" width="247" height="270" as="geometry" />
        </mxCell>
        <mxCell id="Yi69IR74LSKM_OkzsTnB-2" value="" style="shape=tableRow;horizontal=0;startSize=0;swimlaneHead=0;swimlaneBody=0;fillColor=none;collapsible=0;dropTarget=0;points=[[0,0.5],[1,0.5]];portConstraint=eastwest;top=0;left=0;right=0;bottom=1;" parent="Yi69IR74LSKM_OkzsTnB-1" vertex="1">
          <mxGeometry y="30" width="247" height="30" as="geometry" />
        </mxCell>
        <mxCell id="Yi69IR74LSKM_OkzsTnB-3" value="PK" style="shape=partialRectangle;connectable=0;fillColor=none;top=0;left=0;bottom=0;right=0;fontStyle=1;overflow=hidden;whiteSpace=wrap;html=1;" parent="Yi69IR74LSKM_OkzsTnB-2" vertex="1">
          <mxGeometry width="30" height="30" as="geometry">
            <mxRectangle width="30" height="30" as="alternateBounds" />
          </mxGeometry>
        </mxCell>
        <mxCell id="Yi69IR74LSKM_OkzsTnB-4" value="boardImgNo&lt;span style=&quot;white-space: pre;&quot;&gt;&#x9;&lt;/span&gt;int&amp;nbsp; &amp;nbsp; &amp;nbsp; &amp;nbsp;PK" style="shape=partialRectangle;connectable=0;fillColor=none;top=0;left=0;bottom=0;right=0;align=left;spacingLeft=6;fontStyle=5;overflow=hidden;whiteSpace=wrap;html=1;" parent="Yi69IR74LSKM_OkzsTnB-2" vertex="1">
          <mxGeometry x="30" width="217" height="30" as="geometry">
            <mxRectangle width="217" height="30" as="alternateBounds" />
          </mxGeometry>
        </mxCell>
        <mxCell id="Yi69IR74LSKM_OkzsTnB-5" value="" style="shape=tableRow;horizontal=0;startSize=0;swimlaneHead=0;swimlaneBody=0;fillColor=none;collapsible=0;dropTarget=0;points=[[0,0.5],[1,0.5]];portConstraint=eastwest;top=0;left=0;right=0;bottom=0;" parent="Yi69IR74LSKM_OkzsTnB-1" vertex="1">
          <mxGeometry y="60" width="247" height="30" as="geometry" />
        </mxCell>
        <mxCell id="Yi69IR74LSKM_OkzsTnB-6" value="" style="shape=partialRectangle;connectable=0;fillColor=none;top=0;left=0;bottom=0;right=0;editable=1;overflow=hidden;whiteSpace=wrap;html=1;" parent="Yi69IR74LSKM_OkzsTnB-5" vertex="1">
          <mxGeometry width="30" height="30" as="geometry">
            <mxRectangle width="30" height="30" as="alternateBounds" />
          </mxGeometry>
        </mxCell>
        <mxCell id="Yi69IR74LSKM_OkzsTnB-7" value="newFileName&amp;nbsp; &amp;nbsp; &amp;nbsp; &amp;nbsp;varchar(50)" style="shape=partialRectangle;connectable=0;fillColor=none;top=0;left=0;bottom=0;right=0;align=left;spacingLeft=6;overflow=hidden;whiteSpace=wrap;html=1;" parent="Yi69IR74LSKM_OkzsTnB-5" vertex="1">
          <mxGeometry x="30" width="217" height="30" as="geometry">
            <mxRectangle width="217" height="30" as="alternateBounds" />
          </mxGeometry>
        </mxCell>
        <mxCell id="Yi69IR74LSKM_OkzsTnB-8" value="" style="shape=tableRow;horizontal=0;startSize=0;swimlaneHead=0;swimlaneBody=0;fillColor=none;collapsible=0;dropTarget=0;points=[[0,0.5],[1,0.5]];portConstraint=eastwest;top=0;left=0;right=0;bottom=0;" parent="Yi69IR74LSKM_OkzsTnB-1" vertex="1">
          <mxGeometry y="90" width="247" height="30" as="geometry" />
        </mxCell>
        <mxCell id="Yi69IR74LSKM_OkzsTnB-9" value="" style="shape=partialRectangle;connectable=0;fillColor=none;top=0;left=0;bottom=0;right=0;editable=1;overflow=hidden;whiteSpace=wrap;html=1;" parent="Yi69IR74LSKM_OkzsTnB-8" vertex="1">
          <mxGeometry width="30" height="30" as="geometry">
            <mxRectangle width="30" height="30" as="alternateBounds" />
          </mxGeometry>
        </mxCell>
        <mxCell id="Yi69IR74LSKM_OkzsTnB-10" value="originalFileName&amp;nbsp; &amp;nbsp; varchar(50)" style="shape=partialRectangle;connectable=0;fillColor=none;top=0;left=0;bottom=0;right=0;align=left;spacingLeft=6;overflow=hidden;whiteSpace=wrap;html=1;" parent="Yi69IR74LSKM_OkzsTnB-8" vertex="1">
          <mxGeometry x="30" width="217" height="30" as="geometry">
            <mxRectangle width="217" height="30" as="alternateBounds" />
          </mxGeometry>
        </mxCell>
        <mxCell id="Yi69IR74LSKM_OkzsTnB-11" value="" style="shape=tableRow;horizontal=0;startSize=0;swimlaneHead=0;swimlaneBody=0;fillColor=none;collapsible=0;dropTarget=0;points=[[0,0.5],[1,0.5]];portConstraint=eastwest;top=0;left=0;right=0;bottom=0;" parent="Yi69IR74LSKM_OkzsTnB-1" vertex="1">
          <mxGeometry y="120" width="247" height="30" as="geometry" />
        </mxCell>
        <mxCell id="Yi69IR74LSKM_OkzsTnB-12" value="" style="shape=partialRectangle;connectable=0;fillColor=none;top=0;left=0;bottom=0;right=0;editable=1;overflow=hidden;whiteSpace=wrap;html=1;" parent="Yi69IR74LSKM_OkzsTnB-11" vertex="1">
          <mxGeometry width="30" height="30" as="geometry">
            <mxRectangle width="30" height="30" as="alternateBounds" />
          </mxGeometry>
        </mxCell>
        <mxCell id="Yi69IR74LSKM_OkzsTnB-13" value="ext&amp;nbsp; &amp;nbsp; &amp;nbsp;&amp;nbsp;&lt;span style=&quot;white-space: pre;&quot;&gt;&#x9;&lt;/span&gt;varchar(4)" style="shape=partialRectangle;connectable=0;fillColor=none;top=0;left=0;bottom=0;right=0;align=left;spacingLeft=6;overflow=hidden;whiteSpace=wrap;html=1;" parent="Yi69IR74LSKM_OkzsTnB-11" vertex="1">
          <mxGeometry x="30" width="217" height="30" as="geometry">
            <mxRectangle width="217" height="30" as="alternateBounds" />
          </mxGeometry>
        </mxCell>
        <mxCell id="Yi69IR74LSKM_OkzsTnB-17" style="shape=tableRow;horizontal=0;startSize=0;swimlaneHead=0;swimlaneBody=0;fillColor=none;collapsible=0;dropTarget=0;points=[[0,0.5],[1,0.5]];portConstraint=eastwest;top=0;left=0;right=0;bottom=0;" parent="Yi69IR74LSKM_OkzsTnB-1" vertex="1">
          <mxGeometry y="150" width="247" height="30" as="geometry" />
        </mxCell>
        <mxCell id="Yi69IR74LSKM_OkzsTnB-18" style="shape=partialRectangle;connectable=0;fillColor=none;top=0;left=0;bottom=0;right=0;editable=1;overflow=hidden;whiteSpace=wrap;html=1;" parent="Yi69IR74LSKM_OkzsTnB-17" vertex="1">
          <mxGeometry width="30" height="30" as="geometry">
            <mxRectangle width="30" height="30" as="alternateBounds" />
          </mxGeometry>
        </mxCell>
        <mxCell id="Yi69IR74LSKM_OkzsTnB-19" value="size&lt;span style=&quot;white-space: pre;&quot;&gt;&#x9;&lt;/span&gt;&lt;span style=&quot;white-space: pre;&quot;&gt;&#x9;&lt;span style=&quot;white-space: pre;&quot;&gt;&#x9;&lt;/span&gt;int&lt;/span&gt;" style="shape=partialRectangle;connectable=0;fillColor=none;top=0;left=0;bottom=0;right=0;align=left;spacingLeft=6;overflow=hidden;whiteSpace=wrap;html=1;" parent="Yi69IR74LSKM_OkzsTnB-17" vertex="1">
          <mxGeometry x="30" width="217" height="30" as="geometry">
            <mxRectangle width="217" height="30" as="alternateBounds" />
          </mxGeometry>
        </mxCell>
        <mxCell id="Yi69IR74LSKM_OkzsTnB-20" style="shape=tableRow;horizontal=0;startSize=0;swimlaneHead=0;swimlaneBody=0;fillColor=none;collapsible=0;dropTarget=0;points=[[0,0.5],[1,0.5]];portConstraint=eastwest;top=0;left=0;right=0;bottom=0;" parent="Yi69IR74LSKM_OkzsTnB-1" vertex="1">
          <mxGeometry y="180" width="247" height="30" as="geometry" />
        </mxCell>
        <mxCell id="Yi69IR74LSKM_OkzsTnB-21" style="shape=partialRectangle;connectable=0;fillColor=none;top=0;left=0;bottom=0;right=0;editable=1;overflow=hidden;whiteSpace=wrap;html=1;" parent="Yi69IR74LSKM_OkzsTnB-20" vertex="1">
          <mxGeometry width="30" height="30" as="geometry">
            <mxRectangle width="30" height="30" as="alternateBounds" />
          </mxGeometry>
        </mxCell>
        <mxCell id="Yi69IR74LSKM_OkzsTnB-22" value="boardNo&lt;span style=&quot;white-space: pre;&quot;&gt;&#x9;&lt;/span&gt;&lt;span style=&quot;white-space: pre;&quot;&gt;&#x9;&lt;/span&gt;int&amp;nbsp; &amp;nbsp; &amp;nbsp; &amp;nbsp;(FK)" style="shape=partialRectangle;connectable=0;fillColor=none;top=0;left=0;bottom=0;right=0;align=left;spacingLeft=6;overflow=hidden;whiteSpace=wrap;html=1;" parent="Yi69IR74LSKM_OkzsTnB-20" vertex="1">
          <mxGeometry x="30" width="217" height="30" as="geometry">
            <mxRectangle width="217" height="30" as="alternateBounds" />
          </mxGeometry>
        </mxCell>
        <mxCell id="Yi69IR74LSKM_OkzsTnB-23" style="shape=tableRow;horizontal=0;startSize=0;swimlaneHead=0;swimlaneBody=0;fillColor=none;collapsible=0;dropTarget=0;points=[[0,0.5],[1,0.5]];portConstraint=eastwest;top=0;left=0;right=0;bottom=0;" parent="Yi69IR74LSKM_OkzsTnB-1" vertex="1">
          <mxGeometry y="210" width="247" height="30" as="geometry" />
        </mxCell>
        <mxCell id="Yi69IR74LSKM_OkzsTnB-24" style="shape=partialRectangle;connectable=0;fillColor=none;top=0;left=0;bottom=0;right=0;editable=1;overflow=hidden;whiteSpace=wrap;html=1;" parent="Yi69IR74LSKM_OkzsTnB-23" vertex="1">
          <mxGeometry width="30" height="30" as="geometry">
            <mxRectangle width="30" height="30" as="alternateBounds" />
          </mxGeometry>
        </mxCell>
        <mxCell id="Yi69IR74LSKM_OkzsTnB-25" value="base64Img&amp;nbsp; &amp;nbsp; &amp;nbsp; text" style="shape=partialRectangle;connectable=0;fillColor=none;top=0;left=0;bottom=0;right=0;align=left;spacingLeft=6;overflow=hidden;whiteSpace=wrap;html=1;" parent="Yi69IR74LSKM_OkzsTnB-23" vertex="1">
          <mxGeometry x="30" width="217" height="30" as="geometry">
            <mxRectangle width="217" height="30" as="alternateBounds" />
          </mxGeometry>
        </mxCell>
        <mxCell id="Yi69IR74LSKM_OkzsTnB-26" style="shape=tableRow;horizontal=0;startSize=0;swimlaneHead=0;swimlaneBody=0;fillColor=none;collapsible=0;dropTarget=0;points=[[0,0.5],[1,0.5]];portConstraint=eastwest;top=0;left=0;right=0;bottom=0;" parent="Yi69IR74LSKM_OkzsTnB-1" vertex="1">
          <mxGeometry y="240" width="247" height="30" as="geometry" />
        </mxCell>
        <mxCell id="Yi69IR74LSKM_OkzsTnB-27" style="shape=partialRectangle;connectable=0;fillColor=none;top=0;left=0;bottom=0;right=0;editable=1;overflow=hidden;whiteSpace=wrap;html=1;" parent="Yi69IR74LSKM_OkzsTnB-26" vertex="1">
          <mxGeometry width="30" height="30" as="geometry">
            <mxRectangle width="30" height="30" as="alternateBounds" />
          </mxGeometry>
        </mxCell>
        <mxCell id="Yi69IR74LSKM_OkzsTnB-28" style="shape=partialRectangle;connectable=0;fillColor=none;top=0;left=0;bottom=0;right=0;align=left;spacingLeft=6;overflow=hidden;whiteSpace=wrap;html=1;" parent="Yi69IR74LSKM_OkzsTnB-26" vertex="1">
          <mxGeometry x="30" width="217" height="30" as="geometry">
            <mxRectangle width="217" height="30" as="alternateBounds" />
          </mxGeometry>
        </mxCell>
        <mxCell id="Yi69IR74LSKM_OkzsTnB-29" value="" style="edgeStyle=entityRelationEdgeStyle;fontSize=12;html=1;endArrow=ERzeroToMany;startArrow=ERmandOne;rounded=0;exitX=0.996;exitY=0.733;exitDx=0;exitDy=0;exitPerimeter=0;" parent="1" source="4WUwOTXDvyv5HhjU8w77-35" edge="1">
          <mxGeometry width="100" height="100" relative="1" as="geometry">
            <mxPoint x="700" y="510" as="sourcePoint" />
            <mxPoint x="780" y="410" as="targetPoint" />
          </mxGeometry>
        </mxCell>
        <mxCell id="5o9-KyRNdV6rqMJ8B1Um-1" value="&lt;b&gt;순서도(flowChart) 작성법&lt;/b&gt;" style="text;html=1;align=center;verticalAlign=middle;whiteSpace=wrap;rounded=0;" parent="1" vertex="1">
          <mxGeometry x="100" y="2160" width="400" height="30" as="geometry" />
        </mxCell>
        <mxCell id="5o9-KyRNdV6rqMJ8B1Um-2" value="시작, 끝" style="strokeWidth=2;html=1;shape=mxgraph.flowchart.start_1;whiteSpace=wrap;" parent="1" vertex="1">
          <mxGeometry x="130" y="2230" width="100" height="60" as="geometry" />
        </mxCell>
        <mxCell id="5o9-KyRNdV6rqMJ8B1Um-3" value="명령문 처리" style="rounded=1;whiteSpace=wrap;html=1;absoluteArcSize=1;arcSize=14;strokeWidth=2;" parent="1" vertex="1">
          <mxGeometry x="347" y="2210" width="203" height="100" as="geometry" />
        </mxCell>
        <mxCell id="5o9-KyRNdV6rqMJ8B1Um-5" value="유저한테&amp;nbsp;&lt;div&gt;입력&lt;/div&gt;" style="html=1;strokeWidth=2;shape=manualInput;whiteSpace=wrap;rounded=1;size=26;arcSize=11;" parent="1" vertex="1">
          <mxGeometry x="130" y="2338" width="100" height="60" as="geometry" />
        </mxCell>
        <mxCell id="5o9-KyRNdV6rqMJ8B1Um-6" value="condition" style="strokeWidth=2;html=1;shape=mxgraph.flowchart.decision;whiteSpace=wrap;" parent="1" vertex="1">
          <mxGeometry x="354" y="2330" width="173" height="100" as="geometry" />
        </mxCell>
        <mxCell id="5o9-KyRNdV6rqMJ8B1Um-8" value="output" style="strokeWidth=2;html=1;shape=mxgraph.flowchart.document2;whiteSpace=wrap;size=0.25;" parent="1" vertex="1">
          <mxGeometry x="139" y="2450" width="100" height="60" as="geometry" />
        </mxCell>
        <mxCell id="5o9-KyRNdV6rqMJ8B1Um-10" value="Left -&amp;gt; Right , Top -&amp;gt; Down" style="text;html=1;align=center;verticalAlign=middle;resizable=0;points=[];autosize=1;strokeColor=none;fillColor=none;" parent="1" vertex="1">
          <mxGeometry x="605" y="2278" width="170" height="30" as="geometry" />
        </mxCell>
        <mxCell id="5o9-KyRNdV6rqMJ8B1Um-13" value="" style="edgeStyle=orthogonalEdgeStyle;rounded=0;orthogonalLoop=1;jettySize=auto;html=1;" parent="1" source="5o9-KyRNdV6rqMJ8B1Um-11" target="5o9-KyRNdV6rqMJ8B1Um-12" edge="1">
          <mxGeometry relative="1" as="geometry" />
        </mxCell>
        <mxCell id="5o9-KyRNdV6rqMJ8B1Um-11" value="Start" style="strokeWidth=2;html=1;shape=mxgraph.flowchart.start_1;whiteSpace=wrap;" parent="1" vertex="1">
          <mxGeometry x="167" y="2630" width="100" height="60" as="geometry" />
        </mxCell>
        <mxCell id="5o9-KyRNdV6rqMJ8B1Um-12" value="input num" style="html=1;strokeWidth=2;shape=manualInput;whiteSpace=wrap;rounded=1;size=26;arcSize=11;" parent="1" vertex="1">
          <mxGeometry x="167" y="2730" width="100" height="60" as="geometry" />
        </mxCell>
        <mxCell id="5o9-KyRNdV6rqMJ8B1Um-16" value="" style="edgeStyle=orthogonalEdgeStyle;rounded=0;orthogonalLoop=1;jettySize=auto;html=1;" parent="1" source="5o9-KyRNdV6rqMJ8B1Um-14" target="5o9-KyRNdV6rqMJ8B1Um-15" edge="1">
          <mxGeometry relative="1" as="geometry" />
        </mxCell>
        <mxCell id="5o9-KyRNdV6rqMJ8B1Um-27" value="" style="edgeStyle=orthogonalEdgeStyle;rounded=0;orthogonalLoop=1;jettySize=auto;html=1;" parent="1" source="5o9-KyRNdV6rqMJ8B1Um-14" target="5o9-KyRNdV6rqMJ8B1Um-26" edge="1">
          <mxGeometry relative="1" as="geometry" />
        </mxCell>
        <mxCell id="5o9-KyRNdV6rqMJ8B1Um-14" value="num is Number?" style="rhombus;whiteSpace=wrap;html=1;" parent="1" vertex="1">
          <mxGeometry x="160" y="2820" width="123" height="80" as="geometry" />
        </mxCell>
        <mxCell id="5o9-KyRNdV6rqMJ8B1Um-15" value="&quot;wrong data&quot;&lt;div&gt;&quot;try again&quot;&lt;/div&gt;" style="shape=document;whiteSpace=wrap;html=1;boundedLbl=1;" parent="1" vertex="1">
          <mxGeometry x="364.5" y="2820" width="120" height="80" as="geometry" />
        </mxCell>
        <mxCell id="5o9-KyRNdV6rqMJ8B1Um-21" value="" style="endArrow=classic;html=1;rounded=0;exitX=0.5;exitY=0;exitDx=0;exitDy=0;" parent="1" source="5o9-KyRNdV6rqMJ8B1Um-15" edge="1">
          <mxGeometry width="50" height="50" relative="1" as="geometry">
            <mxPoint x="680" y="2970" as="sourcePoint" />
            <mxPoint x="425" y="2760" as="targetPoint" />
          </mxGeometry>
        </mxCell>
        <mxCell id="5o9-KyRNdV6rqMJ8B1Um-22" value="" style="endArrow=classic;html=1;rounded=0;entryX=1;entryY=0.5;entryDx=0;entryDy=0;" parent="1" target="5o9-KyRNdV6rqMJ8B1Um-12" edge="1">
          <mxGeometry width="50" height="50" relative="1" as="geometry">
            <mxPoint x="420" y="2760" as="sourcePoint" />
            <mxPoint x="730" y="2920" as="targetPoint" />
          </mxGeometry>
        </mxCell>
        <mxCell id="5o9-KyRNdV6rqMJ8B1Um-23" style="edgeStyle=orthogonalEdgeStyle;rounded=0;orthogonalLoop=1;jettySize=auto;html=1;exitX=0.5;exitY=1;exitDx=0;exitDy=0;entryX=0.5;entryY=0.833;entryDx=0;entryDy=0;entryPerimeter=0;" parent="1" source="5o9-KyRNdV6rqMJ8B1Um-12" target="5o9-KyRNdV6rqMJ8B1Um-12" edge="1">
          <mxGeometry relative="1" as="geometry" />
        </mxCell>
        <mxCell id="5o9-KyRNdV6rqMJ8B1Um-24" value="" style="endArrow=classic;html=1;rounded=0;exitX=0.5;exitY=1;exitDx=0;exitDy=0;" parent="1" source="5o9-KyRNdV6rqMJ8B1Um-12" target="5o9-KyRNdV6rqMJ8B1Um-14" edge="1">
          <mxGeometry width="50" height="50" relative="1" as="geometry">
            <mxPoint x="680" y="2970" as="sourcePoint" />
            <mxPoint x="730" y="2920" as="targetPoint" />
          </mxGeometry>
        </mxCell>
        <mxCell id="5o9-KyRNdV6rqMJ8B1Um-25" value="false" style="text;html=1;align=center;verticalAlign=middle;whiteSpace=wrap;rounded=0;" parent="1" vertex="1">
          <mxGeometry x="287" y="2830" width="60" height="30" as="geometry" />
        </mxCell>
        <mxCell id="5o9-KyRNdV6rqMJ8B1Um-26" value="result = num % 2" style="whiteSpace=wrap;html=1;" parent="1" vertex="1">
          <mxGeometry x="161.5" y="2940" width="120" height="60" as="geometry" />
        </mxCell>
        <mxCell id="5o9-KyRNdV6rqMJ8B1Um-28" value="true" style="text;html=1;align=center;verticalAlign=middle;whiteSpace=wrap;rounded=0;" parent="1" vertex="1">
          <mxGeometry x="159" y="2900" width="60" height="30" as="geometry" />
        </mxCell>
        <mxCell id="5o9-KyRNdV6rqMJ8B1Um-29" value="result == 0 ?" style="rhombus;whiteSpace=wrap;html=1;" parent="1" vertex="1">
          <mxGeometry x="152.5" y="3040" width="138" height="80" as="geometry" />
        </mxCell>
        <mxCell id="5o9-KyRNdV6rqMJ8B1Um-30" value="&quot;num is even&quot;" style="shape=document;whiteSpace=wrap;html=1;boundedLbl=1;" parent="1" vertex="1">
          <mxGeometry x="167" y="3160" width="120" height="80" as="geometry" />
        </mxCell>
        <mxCell id="5o9-KyRNdV6rqMJ8B1Um-31" value="&quot;num is odd&quot;" style="shape=document;whiteSpace=wrap;html=1;boundedLbl=1;" parent="1" vertex="1">
          <mxGeometry x="364.5" y="3050" width="120" height="80" as="geometry" />
        </mxCell>
        <mxCell id="5o9-KyRNdV6rqMJ8B1Um-32" value="" style="endArrow=classic;html=1;rounded=0;exitX=1;exitY=0.5;exitDx=0;exitDy=0;" parent="1" source="5o9-KyRNdV6rqMJ8B1Um-29" edge="1">
          <mxGeometry width="50" height="50" relative="1" as="geometry">
            <mxPoint x="680" y="2970" as="sourcePoint" />
            <mxPoint x="360" y="3080" as="targetPoint" />
          </mxGeometry>
        </mxCell>
        <mxCell id="5o9-KyRNdV6rqMJ8B1Um-33" value="false" style="text;html=1;align=center;verticalAlign=middle;whiteSpace=wrap;rounded=0;" parent="1" vertex="1">
          <mxGeometry x="294" y="3050" width="60" height="30" as="geometry" />
        </mxCell>
        <mxCell id="5o9-KyRNdV6rqMJ8B1Um-34" value="" style="endArrow=classic;html=1;rounded=0;exitX=0.5;exitY=1;exitDx=0;exitDy=0;entryX=0.5;entryY=0;entryDx=0;entryDy=0;" parent="1" source="5o9-KyRNdV6rqMJ8B1Um-26" target="5o9-KyRNdV6rqMJ8B1Um-29" edge="1">
          <mxGeometry width="50" height="50" relative="1" as="geometry">
            <mxPoint x="680" y="2970" as="sourcePoint" />
            <mxPoint x="730" y="2920" as="targetPoint" />
          </mxGeometry>
        </mxCell>
        <mxCell id="5o9-KyRNdV6rqMJ8B1Um-35" value="" style="endArrow=classic;html=1;rounded=0;exitX=0.5;exitY=1;exitDx=0;exitDy=0;entryX=0.442;entryY=0.125;entryDx=0;entryDy=0;entryPerimeter=0;" parent="1" source="5o9-KyRNdV6rqMJ8B1Um-29" target="5o9-KyRNdV6rqMJ8B1Um-30" edge="1">
          <mxGeometry width="50" height="50" relative="1" as="geometry">
            <mxPoint x="232" y="3010" as="sourcePoint" />
            <mxPoint x="232" y="3050" as="targetPoint" />
          </mxGeometry>
        </mxCell>
        <mxCell id="5o9-KyRNdV6rqMJ8B1Um-36" value="true" style="text;html=1;align=center;verticalAlign=middle;whiteSpace=wrap;rounded=0;" parent="1" vertex="1">
          <mxGeometry x="161.5" y="3120" width="60" height="30" as="geometry" />
        </mxCell>
        <mxCell id="5o9-KyRNdV6rqMJ8B1Um-37" value="End" style="strokeWidth=2;html=1;shape=mxgraph.flowchart.start_1;whiteSpace=wrap;" parent="1" vertex="1">
          <mxGeometry x="172" y="3280" width="100" height="60" as="geometry" />
        </mxCell>
        <mxCell id="5o9-KyRNdV6rqMJ8B1Um-39" value="" style="endArrow=classic;html=1;rounded=0;exitX=0.433;exitY=0.913;exitDx=0;exitDy=0;exitPerimeter=0;" parent="1" source="5o9-KyRNdV6rqMJ8B1Um-30" target="5o9-KyRNdV6rqMJ8B1Um-37" edge="1">
          <mxGeometry width="50" height="50" relative="1" as="geometry">
            <mxPoint x="232" y="3010" as="sourcePoint" />
            <mxPoint x="232" y="3050" as="targetPoint" />
          </mxGeometry>
        </mxCell>
        <mxCell id="5o9-KyRNdV6rqMJ8B1Um-40" value="" style="endArrow=classic;html=1;rounded=0;exitX=0.571;exitY=0.85;exitDx=0;exitDy=0;exitPerimeter=0;" parent="1" source="5o9-KyRNdV6rqMJ8B1Um-31" edge="1">
          <mxGeometry width="50" height="50" relative="1" as="geometry">
            <mxPoint x="435" y="2830" as="sourcePoint" />
            <mxPoint x="440" y="3310" as="targetPoint" />
          </mxGeometry>
        </mxCell>
        <mxCell id="5o9-KyRNdV6rqMJ8B1Um-41" value="" style="endArrow=classic;html=1;rounded=0;" parent="1" edge="1">
          <mxGeometry width="50" height="50" relative="1" as="geometry">
            <mxPoint x="440" y="3300" as="sourcePoint" />
            <mxPoint x="277" y="3300" as="targetPoint" />
          </mxGeometry>
        </mxCell>
        <mxCell id="Tyz4MJ3gkX_nVYtlCF9K-1" value="Start" style="strokeWidth=2;html=1;shape=mxgraph.flowchart.start_1;whiteSpace=wrap;" vertex="1" parent="1">
          <mxGeometry x="240" y="3430" width="100" height="60" as="geometry" />
        </mxCell>
        <mxCell id="Tyz4MJ3gkX_nVYtlCF9K-2" value="&amp;nbsp;ifnull(datediff()) == -1" style="rhombus;whiteSpace=wrap;html=1;" vertex="1" parent="1">
          <mxGeometry x="182.5" y="3540" width="215" height="80" as="geometry" />
        </mxCell>
        <mxCell id="Tyz4MJ3gkX_nVYtlCF9K-3" value="" style="rounded=1;whiteSpace=wrap;html=1;" vertex="1" parent="1">
          <mxGeometry x="478" y="3550" width="120" height="60" as="geometry" />
        </mxCell>
      </root>
    </mxGraphModel>
  </diagram>
</mxfile>
